<svg xmlns="http://www.w3.org/2000/svg" xmlns:xlink="http://www.w3.org/1999/xlink" width="538" zoomAndPan="magnify" viewBox="0 0 403.5 108.749999" height="145" preserveAspectRatio="xMidYMid meet" version="1.0"><defs><g/><clipPath id="55a817a6c8"><path d="M 338 31 L 371 31 L 371 64 L 338 64 Z M 338 31 " clip-rule="nonzero"/></clipPath><clipPath id="dcd1c561a2"><path d="M 331.925781 36.285156 L 354.828125 15.117188 L 386.183594 49.042969 L 363.285156 70.210938 Z M 331.925781 36.285156 " clip-rule="nonzero"/></clipPath><clipPath id="e091b990ef"><path d="M 331.925781 36.285156 L 354.828125 15.117188 L 386.183594 49.042969 L 363.285156 70.210938 Z M 331.925781 36.285156 " clip-rule="nonzero"/></clipPath><clipPath id="3a6e15570b"><path d="M 355 16 L 388 16 L 388 49 L 355 49 Z M 355 16 " clip-rule="nonzero"/></clipPath><clipPath id="64830a9ff1"><path d="M 348.359375 21.09375 L 371.261719 -0.0703125 L 402.617188 33.855469 L 379.71875 55.023438 Z M 348.359375 21.09375 " clip-rule="nonzero"/></clipPath><clipPath id="a81bb84a40"><path d="M 348.359375 21.09375 L 371.261719 -0.0703125 L 402.617188 33.855469 L 379.71875 55.023438 Z M 348.359375 21.09375 " clip-rule="nonzero"/></clipPath></defs><g clip-path="url(#55a817a6c8)"><g clip-path="url(#dcd1c561a2)"><g clip-path="url(#e091b990ef)"><path fill="#18cb96" d="M 370.742188 32.496094 L 342.988281 31.265625 C 337.625 31.027344 336.722656 41.46875 343.074219 41.640625 L 360.34375 42.109375 L 359.027344 59.488281 C 358.625 64.78125 368.945312 65.339844 369.238281 59.960938 Z M 370.742188 32.496094 " fill-opacity="1" fill-rule="nonzero"/></g></g></g><g clip-path="url(#3a6e15570b)"><g clip-path="url(#64830a9ff1)"><g clip-path="url(#a81bb84a40)"><path fill="#18cb96" d="M 387.175781 17.308594 L 359.421875 16.078125 C 354.058594 15.839844 353.152344 26.28125 359.503906 26.453125 L 376.777344 26.921875 L 375.457031 44.300781 C 375.054688 49.59375 385.378906 50.152344 385.671875 44.773438 Z M 387.175781 17.308594 " fill-opacity="1" fill-rule="nonzero"/></g></g></g><g fill="#ffffff" fill-opacity="1"><g transform="translate(20.071505, 76.873765)"><g><path d="M 31.328125 -43.5 C 32.273438 -43.5 33.160156 -43.226562 33.984375 -42.6875 C 34.816406 -42.15625 35.234375 -41.304688 35.234375 -40.140625 L 35.234375 -3.421875 C 35.234375 -1.140625 33.929688 0 31.328125 0 C 28.992188 0 27.785156 -1.078125 27.703125 -3.234375 C 26.265625 -1.972656 24.648438 -1.015625 22.859375 -0.359375 C 21.066406 0.285156 19.363281 0.609375 17.75 0.609375 C 14.382812 0.609375 11.476562 -0.148438 9.03125 -1.671875 C 6.59375 -3.203125 4.722656 -5.332031 3.421875 -8.0625 C 2.128906 -10.800781 1.484375 -13.941406 1.484375 -17.484375 C 1.484375 -20.890625 2.175781 -23.890625 3.5625 -26.484375 C 4.945312 -29.085938 6.882812 -31.140625 9.375 -32.640625 C 11.863281 -34.140625 14.742188 -34.890625 18.015625 -34.890625 C 19.492188 -34.890625 21.082031 -34.597656 22.78125 -34.015625 C 24.488281 -33.429688 26.082031 -32.554688 27.5625 -31.390625 L 27.5625 -40.140625 C 27.5625 -41.304688 27.953125 -42.15625 28.734375 -42.6875 C 29.523438 -43.226562 30.390625 -43.5 31.328125 -43.5 Z M 17.953125 -6.1875 C 20.191406 -6.1875 22.21875 -6.691406 24.03125 -7.703125 C 25.851562 -8.710938 27.078125 -10.179688 27.703125 -12.109375 L 27.640625 -22.453125 C 26.867188 -24.296875 25.617188 -25.695312 23.890625 -26.65625 C 22.171875 -27.625 20.394531 -28.109375 18.5625 -28.109375 C 15.738281 -28.109375 13.460938 -27.085938 11.734375 -25.046875 C 10.003906 -23.003906 9.140625 -20.457031 9.140625 -17.40625 C 9.140625 -14.132812 9.945312 -11.445312 11.5625 -9.34375 C 13.175781 -7.238281 15.304688 -6.1875 17.953125 -6.1875 Z M 17.953125 -6.1875 "/></g></g></g><g fill="#ffffff" fill-opacity="1"><g transform="translate(58.992839, 76.873765)"><g><path d="M 19.234375 -34.890625 C 22.816406 -34.890625 25.953125 -34.140625 28.640625 -32.640625 C 31.328125 -31.140625 33.410156 -29.046875 34.890625 -26.359375 C 36.367188 -23.671875 37.109375 -20.53125 37.109375 -16.9375 C 37.066406 -13.445312 36.296875 -10.378906 34.796875 -7.734375 C 33.296875 -5.085938 31.210938 -3.023438 28.546875 -1.546875 C 25.878906 -0.0664062 22.773438 0.671875 19.234375 0.671875 C 15.734375 0.671875 12.640625 -0.0664062 9.953125 -1.546875 C 7.265625 -3.023438 5.164062 -5.085938 3.65625 -7.734375 C 2.15625 -10.378906 1.382812 -13.445312 1.34375 -16.9375 C 1.34375 -20.53125 2.09375 -23.671875 3.59375 -26.359375 C 5.09375 -29.046875 7.1875 -31.140625 9.875 -32.640625 C 12.570312 -34.140625 15.691406 -34.890625 19.234375 -34.890625 Z M 19.234375 -6.046875 C 22.273438 -6.046875 24.703125 -7.054688 26.515625 -9.078125 C 28.335938 -11.097656 29.25 -13.71875 29.25 -16.9375 C 29.25 -20.257812 28.335938 -22.960938 26.515625 -25.046875 C 24.703125 -27.128906 22.273438 -28.171875 19.234375 -28.171875 C 16.222656 -28.171875 13.800781 -27.128906 11.96875 -25.046875 C 10.132812 -22.960938 9.21875 -20.257812 9.21875 -16.9375 C 9.21875 -13.71875 10.132812 -11.097656 11.96875 -9.078125 C 13.800781 -7.054688 16.222656 -6.046875 19.234375 -6.046875 Z M 19.234375 -6.046875 "/></g></g></g><g fill="#ffffff" fill-opacity="1"><g transform="translate(96.300823, 76.873765)"><g><path d="M 26.5625 -25.015625 C 25.53125 -26.222656 24.316406 -27.070312 22.921875 -27.5625 C 21.535156 -28.0625 20.171875 -28.3125 18.828125 -28.3125 C 15.867188 -28.3125 13.492188 -27.289062 11.703125 -25.25 C 9.910156 -23.207031 9.015625 -20.460938 9.015625 -17.015625 C 9.015625 -13.691406 9.941406 -11.019531 11.796875 -9 C 13.660156 -6.988281 16.09375 -5.984375 19.09375 -5.984375 C 20.4375 -5.984375 21.800781 -6.21875 23.1875 -6.6875 C 24.582031 -7.15625 25.816406 -7.929688 26.890625 -9.015625 C 27.878906 -9.992188 28.851562 -10.503906 29.8125 -10.546875 C 30.78125 -10.597656 31.578125 -10.332031 32.203125 -9.75 C 32.828125 -9.164062 33.171875 -8.414062 33.234375 -7.5 C 33.304688 -6.582031 32.921875 -5.648438 32.078125 -4.703125 C 30.328125 -2.773438 28.316406 -1.394531 26.046875 -0.5625 C 23.785156 0.257812 21.445312 0.671875 19.03125 0.671875 C 15.488281 0.671875 12.382812 -0.0664062 9.71875 -1.546875 C 7.050781 -3.023438 4.976562 -5.085938 3.5 -7.734375 C 2.019531 -10.378906 1.28125 -13.445312 1.28125 -16.9375 C 1.28125 -20.570312 2.003906 -23.734375 3.453125 -26.421875 C 4.910156 -29.109375 6.960938 -31.191406 9.609375 -32.671875 C 12.253906 -34.148438 15.328125 -34.890625 18.828125 -34.890625 C 21.296875 -34.890625 23.59375 -34.507812 25.71875 -33.75 C 27.84375 -32.988281 29.800781 -31.554688 31.59375 -29.453125 C 32.40625 -28.503906 32.753906 -27.582031 32.640625 -26.6875 C 32.523438 -25.789062 32.128906 -25.050781 31.453125 -24.46875 C 30.785156 -23.882812 29.992188 -23.601562 29.078125 -23.625 C 28.160156 -23.65625 27.320312 -24.117188 26.5625 -25.015625 Z M 26.5625 -25.015625 "/></g></g></g><g fill="#ffffff" fill-opacity="1"><g transform="translate(129.911564, 76.873765)"><g><path d="M 0.875 -8 C 0.5625 -9.257812 0.851562 -10.269531 1.75 -11.03125 C 2.644531 -11.789062 3.628906 -12.171875 4.703125 -12.171875 C 5.515625 -12.171875 6.234375 -11.929688 6.859375 -11.453125 C 7.484375 -10.984375 7.953125 -10.28125 8.265625 -9.34375 C 8.535156 -8.539062 9.117188 -7.878906 10.015625 -7.359375 C 10.910156 -6.847656 11.953125 -6.476562 13.140625 -6.25 C 14.328125 -6.03125 15.523438 -5.921875 16.734375 -5.921875 C 19.160156 -5.921875 21.113281 -6.351562 22.59375 -7.21875 C 24.070312 -8.09375 24.8125 -9.207031 24.8125 -10.5625 C 24.8125 -11.5 24.414062 -12.191406 23.625 -12.640625 C 22.84375 -13.085938 21.8125 -13.398438 20.53125 -13.578125 C 19.257812 -13.753906 17.90625 -13.890625 16.46875 -13.984375 C 14.59375 -14.160156 12.742188 -14.382812 10.921875 -14.65625 C 9.109375 -14.925781 7.460938 -15.382812 5.984375 -16.03125 C 4.503906 -16.6875 3.316406 -17.648438 2.421875 -18.921875 C 1.523438 -20.203125 1.078125 -21.941406 1.078125 -24.140625 C 1.078125 -26.285156 1.703125 -28.164062 2.953125 -29.78125 C 4.210938 -31.394531 5.984375 -32.648438 8.265625 -33.546875 C 10.554688 -34.441406 13.203125 -34.890625 16.203125 -34.890625 C 17.953125 -34.890625 19.832031 -34.722656 21.84375 -34.390625 C 23.863281 -34.054688 25.734375 -33.375 27.453125 -32.34375 C 29.179688 -31.3125 30.453125 -29.71875 31.265625 -27.5625 C 31.578125 -26.664062 31.550781 -25.867188 31.1875 -25.171875 C 30.832031 -24.484375 30.304688 -23.957031 29.609375 -23.59375 C 28.921875 -23.238281 28.21875 -23.0625 27.5 -23.0625 C 26.6875 -23.0625 26.023438 -23.21875 25.515625 -23.53125 C 25.003906 -23.84375 24.566406 -24.378906 24.203125 -25.140625 C 23.796875 -26.085938 23.109375 -26.785156 22.140625 -27.234375 C 21.179688 -27.679688 20.148438 -27.957031 19.046875 -28.0625 C 17.953125 -28.175781 17.003906 -28.234375 16.203125 -28.234375 C 13.960938 -28.234375 12.15625 -27.851562 10.78125 -27.09375 C 9.414062 -26.332031 8.734375 -25.320312 8.734375 -24.0625 C 8.734375 -22.988281 9.09375 -22.257812 9.8125 -21.875 C 10.53125 -21.5 11.503906 -21.273438 12.734375 -21.203125 C 13.972656 -21.140625 15.351562 -21.019531 16.875 -20.84375 C 18.757812 -20.613281 20.617188 -20.363281 22.453125 -20.09375 C 24.296875 -19.832031 25.976562 -19.375 27.5 -18.71875 C 29.019531 -18.070312 30.226562 -17.109375 31.125 -15.828125 C 32.019531 -14.554688 32.46875 -12.800781 32.46875 -10.5625 C 32.46875 -8.363281 31.804688 -6.410156 30.484375 -4.703125 C 29.160156 -3.003906 27.320312 -1.679688 24.96875 -0.734375 C 22.625 0.203125 19.878906 0.671875 16.734375 0.671875 C 15.347656 0.671875 13.835938 0.566406 12.203125 0.359375 C 10.566406 0.160156 8.972656 -0.238281 7.421875 -0.84375 C 5.878906 -1.445312 4.523438 -2.316406 3.359375 -3.453125 C 2.191406 -4.597656 1.363281 -6.113281 0.875 -8 Z M 0.875 -8 "/></g></g></g><g fill="#ffffff" fill-opacity="1"><g transform="translate(163.320615, 76.873765)"><g><path d="M 31.328125 -34.21875 C 32.492188 -34.21875 33.488281 -33.710938 34.3125 -32.703125 C 35.144531 -31.703125 35.316406 -30.523438 34.828125 -29.171875 L 15.1875 9.34375 C 14.738281 10.195312 14.164062 10.867188 13.46875 11.359375 C 12.78125 11.859375 12.054688 12.109375 11.296875 12.109375 C 10.535156 12.109375 9.828125 11.847656 9.171875 11.328125 C 8.523438 10.816406 8.078125 10.15625 7.828125 9.34375 C 7.585938 8.539062 7.691406 7.691406 8.140625 6.796875 L 13.25 -3.296875 L 0 -28.90625 C -0.40625 -29.800781 -0.460938 -30.648438 -0.171875 -31.453125 C 0.117188 -32.265625 0.597656 -32.925781 1.265625 -33.4375 C 1.941406 -33.957031 2.6875 -34.21875 3.5 -34.21875 C 4.21875 -34.21875 4.910156 -33.992188 5.578125 -33.546875 C 6.253906 -33.097656 6.75 -32.515625 7.0625 -31.796875 L 17.40625 -11.5625 L 27.765625 -31.875 C 28.078125 -32.582031 28.546875 -33.148438 29.171875 -33.578125 C 29.804688 -34.003906 30.523438 -34.21875 31.328125 -34.21875 Z M 31.328125 -34.21875 "/></g></g></g><g fill="#ffffff" fill-opacity="1"><g transform="translate(198.343016, 76.873765)"><g><path d="M 22.65625 -34.890625 C 25.789062 -34.890625 28.457031 -34.207031 30.65625 -32.84375 C 32.851562 -31.476562 34.535156 -29.582031 35.703125 -27.15625 C 36.867188 -24.738281 37.453125 -21.914062 37.453125 -18.6875 L 37.453125 -3.5 C 37.453125 -2.46875 37.113281 -1.625 36.4375 -0.96875 C 35.769531 -0.320312 34.828125 0 33.609375 0 C 32.492188 0 31.578125 -0.320312 30.859375 -0.96875 C 30.140625 -1.625 29.78125 -2.46875 29.78125 -3.5 L 29.78125 -18.828125 C 29.78125 -21.609375 29.117188 -23.859375 27.796875 -25.578125 C 26.472656 -27.304688 24.378906 -28.171875 21.515625 -28.171875 C 20.660156 -28.171875 19.640625 -27.9375 18.453125 -27.46875 C 17.265625 -27 16.097656 -26.289062 14.953125 -25.34375 C 13.816406 -24.40625 12.878906 -23.21875 12.140625 -21.78125 C 11.398438 -20.34375 11.03125 -18.640625 11.03125 -16.671875 L 11.03125 -3.421875 C 11.03125 -1.140625 9.796875 0 7.328125 0 C 6.160156 0 5.207031 -0.300781 4.46875 -0.90625 C 3.726562 -1.507812 3.359375 -2.347656 3.359375 -3.421875 L 3.359375 -30.796875 C 3.359375 -31.910156 3.75 -32.757812 4.53125 -33.34375 C 5.320312 -33.925781 6.207031 -34.21875 7.1875 -34.21875 C 8.132812 -34.21875 9.007812 -33.925781 9.8125 -33.34375 C 10.625 -32.757812 11.03125 -31.953125 11.03125 -30.921875 L 11.03125 -30.453125 C 12.957031 -32.242188 14.953125 -33.429688 17.015625 -34.015625 C 19.078125 -34.597656 20.957031 -34.890625 22.65625 -34.890625 Z M 22.65625 -34.890625 "/></g></g></g><g fill="#ffffff" fill-opacity="1"><g transform="translate(239.146577, 76.873765)"><g><path d="M 19.234375 -5.984375 C 20.523438 -5.984375 21.796875 -6.160156 23.046875 -6.515625 C 24.304688 -6.878906 25.476562 -7.488281 26.5625 -8.34375 C 27.59375 -9.28125 28.597656 -9.710938 29.578125 -9.640625 C 30.566406 -9.578125 31.382812 -9.21875 32.03125 -8.5625 C 32.6875 -7.914062 33.015625 -7.109375 33.015625 -6.140625 C 33.015625 -5.179688 32.539062 -4.253906 31.59375 -3.359375 C 30.03125 -1.835938 28.171875 -0.773438 26.015625 -0.171875 C 23.867188 0.429688 21.675781 0.710938 19.4375 0.671875 C 15.9375 0.671875 12.851562 -0.0390625 10.1875 -1.46875 C 7.519531 -2.90625 5.4375 -4.898438 3.9375 -7.453125 C 2.4375 -10.015625 1.6875 -12.976562 1.6875 -16.34375 C 1.6875 -20.007812 2.398438 -23.234375 3.828125 -26.015625 C 5.265625 -28.796875 7.289062 -30.96875 9.90625 -32.53125 C 12.53125 -34.101562 15.640625 -34.890625 19.234375 -34.890625 C 22.816406 -34.890625 25.863281 -34.160156 28.375 -32.703125 C 30.882812 -31.253906 32.800781 -29.21875 34.125 -26.59375 C 35.445312 -23.96875 36.109375 -20.90625 36.109375 -17.40625 C 36.109375 -16.289062 35.882812 -15.335938 35.4375 -14.546875 C 34.988281 -13.765625 33.800781 -13.375 31.875 -13.375 L 9.484375 -13.375 C 10.109375 -11.175781 11.296875 -9.394531 13.046875 -8.03125 C 14.796875 -6.664062 16.859375 -5.984375 19.234375 -5.984375 Z M 19.296875 -28.234375 C 16.691406 -28.234375 14.515625 -27.414062 12.765625 -25.78125 C 11.023438 -24.144531 9.90625 -22.003906 9.40625 -19.359375 L 28.984375 -19.359375 C 28.753906 -22.003906 27.875 -24.144531 26.34375 -25.78125 C 24.820312 -27.414062 22.472656 -28.234375 19.296875 -28.234375 Z M 19.296875 -28.234375 "/></g></g></g><g fill="#ffffff" fill-opacity="1"><g transform="translate(278.202339, 76.873765)"><g><path d="M 26.5625 -25.015625 C 25.53125 -26.222656 24.316406 -27.070312 22.921875 -27.5625 C 21.535156 -28.0625 20.171875 -28.3125 18.828125 -28.3125 C 15.867188 -28.3125 13.492188 -27.289062 11.703125 -25.25 C 9.910156 -23.207031 9.015625 -20.460938 9.015625 -17.015625 C 9.015625 -13.691406 9.941406 -11.019531 11.796875 -9 C 13.660156 -6.988281 16.09375 -5.984375 19.09375 -5.984375 C 20.4375 -5.984375 21.800781 -6.21875 23.1875 -6.6875 C 24.582031 -7.15625 25.816406 -7.929688 26.890625 -9.015625 C 27.878906 -9.992188 28.851562 -10.503906 29.8125 -10.546875 C 30.78125 -10.597656 31.578125 -10.332031 32.203125 -9.75 C 32.828125 -9.164062 33.171875 -8.414062 33.234375 -7.5 C 33.304688 -6.582031 32.921875 -5.648438 32.078125 -4.703125 C 30.328125 -2.773438 28.316406 -1.394531 26.046875 -0.5625 C 23.785156 0.257812 21.445312 0.671875 19.03125 0.671875 C 15.488281 0.671875 12.382812 -0.0664062 9.71875 -1.546875 C 7.050781 -3.023438 4.976562 -5.085938 3.5 -7.734375 C 2.019531 -10.378906 1.28125 -13.445312 1.28125 -16.9375 C 1.28125 -20.570312 2.003906 -23.734375 3.453125 -26.421875 C 4.910156 -29.109375 6.960938 -31.191406 9.609375 -32.671875 C 12.253906 -34.148438 15.328125 -34.890625 18.828125 -34.890625 C 21.296875 -34.890625 23.59375 -34.507812 25.71875 -33.75 C 27.84375 -32.988281 29.800781 -31.554688 31.59375 -29.453125 C 32.40625 -28.503906 32.753906 -27.582031 32.640625 -26.6875 C 32.523438 -25.789062 32.128906 -25.050781 31.453125 -24.46875 C 30.785156 -23.882812 29.992188 -23.601562 29.078125 -23.625 C 28.160156 -23.65625 27.320312 -24.117188 26.5625 -25.015625 Z M 26.5625 -25.015625 "/></g></g></g><g fill="#ffffff" fill-opacity="1"><g transform="translate(311.813072, 76.873765)"><g><path d="M 31.0625 -6.390625 C 31.957031 -5.398438 32.367188 -4.410156 32.296875 -3.421875 C 32.234375 -2.441406 31.863281 -1.625 31.1875 -0.96875 C 30.519531 -0.320312 29.71875 0 28.78125 0 C 27.75 0 26.738281 -0.492188 25.75 -1.484375 L 16.140625 -11.90625 L 6.59375 -1.609375 C 5.5625 -0.535156 4.441406 0 3.234375 0 C 2.328125 0 1.535156 -0.300781 0.859375 -0.90625 C 0.191406 -1.507812 -0.160156 -2.269531 -0.203125 -3.1875 C -0.242188 -4.113281 0.179688 -5.066406 1.078125 -6.046875 L 11.4375 -17.21875 L 1.34375 -28.109375 C 0.445312 -29.085938 0.0195312 -30.046875 0.0625 -30.984375 C 0.113281 -31.929688 0.484375 -32.707031 1.171875 -33.3125 C 1.867188 -33.914062 2.6875 -34.21875 3.625 -34.21875 C 4.207031 -34.21875 4.800781 -34.082031 5.40625 -33.8125 C 6.007812 -33.550781 6.601562 -33.101562 7.1875 -32.46875 L 16.265625 -22.71875 L 25.484375 -32.609375 C 26.015625 -33.191406 26.570312 -33.601562 27.15625 -33.84375 C 27.738281 -34.09375 28.300781 -34.21875 28.84375 -34.21875 C 29.78125 -34.21875 30.582031 -33.925781 31.25 -33.34375 C 31.925781 -32.757812 32.285156 -32.007812 32.328125 -31.09375 C 32.378906 -30.175781 31.9375 -29.203125 31 -28.171875 L 20.90625 -17.34375 Z M 31.0625 -6.390625 "/></g></g></g></svg>